<svg xmlns="http://www.w3.org/2000/svg" version="1.1" xmlns:xlink="http://www.w3.org/1999/xlink" xmlns:svgjs="http://svgjs.dev/svgjs" width="1000" height="1000" viewBox="0 0 1000 1000"><rect width="1000" height="1000" fill="#000000"></rect><g transform="matrix(0.7,0,0,0.7,149.57575757575756,282.1265587044535)"><svg viewBox="0 0 396 247" data-background-color="#85144b" preserveAspectRatio="xMidYMid meet" height="623" width="1000" xmlns="http://www.w3.org/2000/svg" xmlns:xlink="http://www.w3.org/1999/xlink"><g id="tight-bounds" transform="matrix(1,0,0,1,0.2400000000000091,-0.09999999999999432)"><svg viewBox="0 0 395.52 247.2" height="247.2" width="395.52"><g><svg></svg></g><g><svg viewBox="0 0 395.52 247.2" height="247.2" width="395.52"><g transform="matrix(1,0,0,1,118.64423128059224,37.08)"><svg viewBox="0 0 158.2315374388155 173.04" height="173.04" width="158.2315374388155"><g><svg viewBox="0 0 395.52 432.53564938951865" height="173.04" width="158.2315374388155"><g transform="matrix(1,0,0,1,0,267.3243837923707)"><svg viewBox="0 0 395.52 165.21126559714793" height="165.21126559714793" width="395.52"><g id="textblocktransform"><svg viewBox="0 0 395.52 165.21126559714793" height="165.21126559714793" width="395.52" id="textblock"><g><svg viewBox="0 0 395.52 165.21126559714793" height="165.21126559714793" width="395.52"><g transform="matrix(1,0,0,1,0,0)"><svg width="395.52" viewBox="0.9800000190734863 -33.84000015258789 82.16999816894531 34.33000183105469" height="165.21126559714793" data-palette-color="url(#5185f8a0-3076-481d-8e84-06fb890493c8)"></svg></g></svg></g></svg></g></svg></g><g transform="matrix(1,0,0,1,83.59901547237078,0)"><svg viewBox="0 0 228.32196905525842 228.32196905525842" height="228.32196905525842" width="228.32196905525842"><g><svg></svg></g><g id="icon-0"><svg viewBox="0 0 228.32196905525842 228.32196905525842" height="228.32196905525842" width="228.32196905525842"><g><path xmlns="http://www.w3.org/2000/svg" d="M68.497 228.322c-37.83 0-68.497-30.667-68.497-68.497v-91.328c0-37.83 30.667-68.497 68.497-68.497h91.328c37.83 0 68.497 30.667 68.497 68.497v91.328c0 37.83-30.667 68.497-68.497 68.497z" fill="#ffffff" fill-rule="nonzero" stroke="none" stroke-width="1" stroke-linecap="butt" stroke-linejoin="miter" stroke-miterlimit="10" stroke-dasharray="" stroke-dashoffset="0" font-family="none" font-weight="none" font-size="none" text-anchor="none" style="mix-blend-mode: normal" data-fill-palette-color="accent"></path></g><g transform="matrix(1,0,0,1,55.028310508661235,45.66439381105168)"><svg viewBox="0 0 118.26534803793595 136.99318143315506" height="136.99318143315506" width="118.26534803793595"><g><svg xmlns="http://www.w3.org/2000/svg" xmlns:xlink="http://www.w3.org/1999/xlink" version="1.1" x="0" y="0" viewBox="9.63800048828125 3.246999979019165 80.7239990234375 93.50699615478516" enable-background="new 0 0 100 100" xml:space="preserve" height="136.99318143315506" width="118.26534803793595" class="icon-s-0" data-fill-palette-color="quaternary" id="s-0"></svg></g></svg></g></svg></g></svg></g><g></g></svg></g></svg></g><g></g></svg></g><defs></defs><mask id="9b6ab982-957b-4a1e-8c84-4d6f4bf85aec"><g id="SvgjsG3019"><svg viewBox="0 0 395.52 247.2" height="247.2" width="395.52"><g><svg></svg></g><g><svg viewBox="0 0 395.52 247.2" height="247.2" width="395.52"><g transform="matrix(1,0,0,1,118.64423128059224,37.08)"><svg viewBox="0 0 158.2315374388155 173.04" height="173.04" width="158.2315374388155"><g><svg viewBox="0 0 395.52 432.53564938951865" height="173.04" width="158.2315374388155"><g transform="matrix(1,0,0,1,0,267.3243837923707)"><svg viewBox="0 0 395.52 165.21126559714793" height="165.21126559714793" width="395.52"><g id="SvgjsG3018"><svg viewBox="0 0 395.52 165.21126559714793" height="165.21126559714793" width="395.52" id="SvgjsSvg3017"><g><svg viewBox="0 0 395.52 165.21126559714793" height="165.21126559714793" width="395.52"><g transform="matrix(1,0,0,1,0,0)"><svg width="395.52" viewBox="0.9800000190734863 -33.84000015258789 82.16999816894531 34.33000183105469" height="165.21126559714793" data-palette-color="url(#5185f8a0-3076-481d-8e84-06fb890493c8)"><path d="M10.99 0L1.71 0 1.61-1.61 4.64-2.29Q4.74-2.88 4.76-3.93 4.79-4.98 4.81-6.84 4.83-8.69 4.83-11.67L4.83-11.67 4.83-17.72Q4.83-19.38 4.81-21.39 4.79-23.39 4.76-25.24 4.74-27.1 4.71-28.42 4.69-29.74 4.69-30.08L4.69-30.08 1.07-30.57 0.98-31.93 7.23-33.84 8.01-33.2Q7.96-31.69 7.93-30.15 7.91-28.61 7.89-26.83 7.86-25.05 7.84-22.88 7.81-20.7 7.81-17.87L7.81-17.87 7.96-17.82Q9.72-19.68 11.33-20.46 12.94-21.24 14.84-21.24L14.84-21.24Q16.55-21.24 18.12-20.36 19.68-19.48 20.7-17.63 21.73-15.77 21.73-12.84L21.73-12.84 21.73-7.47Q21.73-5.66 21.83-4.27 21.92-2.88 22.02-2.29L22.02-2.29 25.05-1.61 25 0 15.82 0 15.72-1.61 18.55-2.29Q18.6-2.69 18.63-3.22 18.65-3.76 18.68-4.66 18.7-5.57 18.7-7.03L18.7-7.03 18.7-12.6Q18.7-14.79 17.97-16.14 17.24-17.48 16.06-18.09 14.89-18.7 13.57-18.7L13.57-18.7Q11.87-18.7 10.4-17.85 8.94-16.99 7.86-15.48L7.86-15.48 7.86-8.06Q7.86-5.71 7.93-4.2 8.01-2.69 8.06-2.29L8.06-2.29 11.08-1.61 10.99 0ZM37.64 0L27.88 0 27.78-1.66 31.05-2.29Q31.1-2.49 31.13-2.93 31.15-3.37 31.17-4.47 31.2-5.57 31.2-7.62L31.2-7.62 31.25-10.69Q31.25-12.94 31.15-14.75 31.05-16.55 30.91-17.33L30.91-17.33 27.63-18.02 27.63-19.48 33.98-21.14 34.52-20.56Q34.42-19.04 34.35-17.6 34.27-16.16 34.27-14.21L34.27-14.21 34.27-8.06Q34.27-5.66 34.35-4.17 34.42-2.69 34.47-2.29L34.47-2.29 37.74-1.66 37.64 0ZM32.76-27.1L32.76-27.1Q31.69-27.1 30.86-27.83 30.03-28.56 30.03-29.69L30.03-29.69Q30.03-30.76 30.86-31.52 31.69-32.28 32.76-32.28L32.76-32.28Q33.84-32.28 34.62-31.52 35.4-30.76 35.4-29.69L35.4-29.69Q35.4-28.56 34.62-27.83 33.84-27.1 32.76-27.1ZM48.68 0.39L48.68 0.39Q46.92 0.39 45.19-0.02 43.45-0.44 42.13-1.12L42.13-1.12 41.89-6.2 44.09-6.2 45.06-2.69Q46.67-1.46 48.97-1.46L48.97-1.46Q50.68-1.46 51.8-2.32 52.92-3.17 52.92-4.64L52.92-4.64Q52.92-6.01 51.95-6.98 50.97-7.96 48.29-9.13L48.29-9.13Q44.87-10.64 43.48-12.04 42.08-13.43 42.08-15.53L42.08-15.53Q42.08-17.19 43.06-18.48 44.04-19.78 45.8-20.51 47.55-21.24 49.85-21.24L49.85-21.24Q51.17-21.24 52.53-21.04 53.9-20.85 54.83-20.46L54.83-20.46 55.37-15.53 53.32-15.53 52.09-18.8Q51.61-19.09 50.92-19.26 50.24-19.43 49.46-19.43L49.46-19.43Q47.65-19.43 46.58-18.58 45.5-17.72 45.5-16.41L45.5-16.41Q45.5-14.89 46.63-13.96 47.75-13.04 50.58-11.62L50.58-11.62Q53.8-10.11 55.07-8.72 56.34-7.32 56.34-5.37L56.34-5.37Q56.34-2.88 54.17-1.25 52 0.39 48.68 0.39ZM80.07-3.13L80.07-3.13 83.15-2.34 83.15-0.83 77.34 0.49 76.8-0.1 76.85-3.08 76.7-3.13Q75.24-1.17 73.8-0.42 72.36 0.34 70.65 0.34L70.65 0.34Q67.47 0.34 65.25-1.61 63.03-3.56 63.03-7.52L63.03-7.52 63.03-11.77Q63.03-13.23 62.98-14.62 62.93-16.02 62.83-17.33L62.83-17.33 59.51-18.02 59.51-19.48 65.52-21.14 66.2-20.41Q66.15-18.9 66.11-17.29 66.06-15.67 66.06-13.87L66.06-13.87 66.01-8.2Q66.01-4.98 67.5-3.66 68.99-2.34 71.33-2.34L71.33-2.34Q72.7-2.34 74.19-3.08 75.68-3.81 76.75-5.57L76.75-5.57 76.75-11.43Q76.75-12.5 76.73-13.6 76.7-14.7 76.65-15.67 76.6-16.65 76.51-17.33L76.51-17.33 72.94-18.02 72.94-19.48 79.24-21.14 79.83-20.51Q79.78-19.04 79.75-17.99 79.73-16.94 79.73-15.97 79.73-14.99 79.73-13.72L79.73-13.72 79.73-10.35Q79.73-7.23 79.88-5.54 80.02-3.86 80.07-3.13Z" opacity="1" transform="matrix(1,0,0,1,0,0)" fill="white" class="wordmark-text-0" id="SvgjsPath3016"></path></svg></g></svg></g></svg></g></svg></g><g transform="matrix(1,0,0,1,83.59901547237078,0)"><svg viewBox="0 0 228.32196905525842 228.32196905525842" height="228.32196905525842" width="228.32196905525842"><g><svg></svg></g><g id="SvgjsG3015"><svg viewBox="0 0 228.32196905525842 228.32196905525842" height="228.32196905525842" width="228.32196905525842"><g></g><g transform="matrix(1,0,0,1,55.028310508661235,45.66439381105168)"><svg viewBox="0 0 118.26534803793595 136.99318143315506" height="136.99318143315506" width="118.26534803793595"><g><svg xmlns="http://www.w3.org/2000/svg" xmlns:xlink="http://www.w3.org/1999/xlink" version="1.1" x="0" y="0" viewBox="9.63800048828125 3.246999979019165 80.7239990234375 93.50699615478516" enable-background="new 0 0 100 100" xml:space="preserve" height="136.99318143315506" width="118.26534803793595" class="icon-s-0" data-fill-palette-color="quaternary" id="SvgjsSvg3014"></svg></g></svg></g></svg></g></svg></g><g></g></svg></g></svg></g><g></g></svg></g><defs></defs></svg></g></mask><linearGradient x1="0" x2="1" y1="0.548" y2="0.55" id="5185f8a0-3076-481d-8e84-06fb890493c8"><stop stop-color="#ff6cab" offset="0"></stop><stop stop-color="#7366ff" offset="1"></stop></linearGradient><rect width="395.5199890136719" height="247.1999969482422" fill="#ffffff" mask="url(#9b6ab982-957b-4a1e-8c84-4d6f4bf85aec)" data-fill-palette-color="primary"></rect><mask id="1e9e9c8a-da80-42a8-9ab5-9da2bb1b11e6"><g id="SvgjsG3030"><svg viewBox="0 0 395.52 247.2" height="247.2" width="395.52"><g><svg></svg></g><g><svg viewBox="0 0 395.52 247.2" height="247.2" width="395.52"><g transform="matrix(1,0,0,1,118.64423128059224,37.08)"><svg viewBox="0 0 158.2315374388155 173.04" height="173.04" width="158.2315374388155"><g><svg viewBox="0 0 395.52 432.53564938951865" height="173.04" width="158.2315374388155"><g transform="matrix(1,0,0,1,0,267.3243837923707)"><svg viewBox="0 0 395.52 165.21126559714793" height="165.21126559714793" width="395.52"><g id="SvgjsG3029"><svg viewBox="0 0 395.52 165.21126559714793" height="165.21126559714793" width="395.52" id="SvgjsSvg3028"><g><svg viewBox="0 0 395.52 165.21126559714793" height="165.21126559714793" width="395.52"><g transform="matrix(1,0,0,1,0,0)"><svg width="395.52" viewBox="0.9800000190734863 -33.84000015258789 82.16999816894531 34.33000183105469" height="165.21126559714793" data-palette-color="url(#5185f8a0-3076-481d-8e84-06fb890493c8)"></svg></g></svg></g></svg></g></svg></g><g transform="matrix(1,0,0,1,83.59901547237078,0)"><svg viewBox="0 0 228.32196905525842 228.32196905525842" height="228.32196905525842" width="228.32196905525842"><g><svg></svg></g><g id="SvgjsG3027"><svg viewBox="0 0 228.32196905525842 228.32196905525842" height="228.32196905525842" width="228.32196905525842"><g></g><g transform="matrix(1,0,0,1,55.028310508661235,45.66439381105168)"><svg viewBox="0 0 118.26534803793595 136.99318143315506" height="136.99318143315506" width="118.26534803793595"><g><svg xmlns="http://www.w3.org/2000/svg" xmlns:xlink="http://www.w3.org/1999/xlink" version="1.1" x="0" y="0" viewBox="9.63800048828125 3.246999979019165 80.7239990234375 93.50699615478516" enable-background="new 0 0 100 100" xml:space="preserve" height="136.99318143315506" width="118.26534803793595" class="icon-s-0" data-fill-palette-color="quaternary" id="SvgjsSvg3026"><g fill="white"><g fill="white"><polygon points="36.703,11.011 9.638,26.636 9.638,38.757 36.703,23.131 63.767,38.757 63.767,26.636   " fill="white"></polygon></g><g fill="white"><polygon points="63.298,89.092 36.233,73.467 36.233,61.348 63.298,76.973 90.362,61.348 90.362,73.467   " fill="white"></polygon></g><g fill="white"><polygon points="9.638,42.012 36.703,26.386 47.198,32.446 20.134,48.072 20.134,79.324 9.638,73.264   " fill="white"></polygon></g><g fill="white"><polygon points="77.083,18.872 50.018,3.247 39.522,9.307 66.586,24.932 66.586,56.184 77.083,50.124   " fill="white"></polygon></g><g fill="white"><polygon points="23.01,81.127 23.011,49.876 33.507,43.816 33.507,75.068 60.571,90.693 50.075,96.754   " fill="white"></polygon></g><g fill="white"><polygon points="90.362,58.092 90.362,26.84 79.866,20.78 79.866,52.031 52.802,67.658 63.298,73.719   " fill="white"></polygon></g></g></svg></g></svg></g></svg></g></svg></g><g></g></svg></g></svg></g><g></g></svg></g><defs></defs><mask><g id="SvgjsG3025"><svg viewBox="0 0 395.52 247.2" height="247.2" width="395.52"><g><svg></svg></g><g><svg viewBox="0 0 395.52 247.2" height="247.2" width="395.52"><g transform="matrix(1,0,0,1,118.64423128059224,37.08)"><svg viewBox="0 0 158.2315374388155 173.04" height="173.04" width="158.2315374388155"><g><svg viewBox="0 0 395.52 432.53564938951865" height="173.04" width="158.2315374388155"><g transform="matrix(1,0,0,1,0,267.3243837923707)"><svg viewBox="0 0 395.52 165.21126559714793" height="165.21126559714793" width="395.52"><g id="SvgjsG3024"><svg viewBox="0 0 395.52 165.21126559714793" height="165.21126559714793" width="395.52" id="SvgjsSvg3023"><g><svg viewBox="0 0 395.52 165.21126559714793" height="165.21126559714793" width="395.52"><g transform="matrix(1,0,0,1,0,0)"><svg width="395.52" viewBox="0.9800000190734863 -33.84000015258789 82.16999816894531 34.33000183105469" height="165.21126559714793" data-palette-color="url(#5185f8a0-3076-481d-8e84-06fb890493c8)"></svg></g></svg></g></svg></g></svg></g><g transform="matrix(1,0,0,1,83.59901547237078,0)"><svg viewBox="0 0 228.32196905525842 228.32196905525842" height="228.32196905525842" width="228.32196905525842"><g><svg></svg></g><g id="SvgjsG3021"><svg viewBox="0 0 228.32196905525842 228.32196905525842" height="228.32196905525842" width="228.32196905525842"><g></g><g transform="matrix(1,0,0,1,55.028310508661235,45.66439381105168)"><svg viewBox="0 0 118.26534803793595 136.99318143315506" height="136.99318143315506" width="118.26534803793595"><g><svg xmlns="http://www.w3.org/2000/svg" xmlns:xlink="http://www.w3.org/1999/xlink" version="1.1" x="0" y="0" viewBox="9.63800048828125 3.246999979019165 80.7239990234375 93.50699615478516" enable-background="new 0 0 100 100" xml:space="preserve" height="136.99318143315506" width="118.26534803793595" class="icon-s-0" data-fill-palette-color="quaternary" id="SvgjsSvg3020"></svg></g></svg></g></svg></g></svg></g><g></g></svg></g></svg></g><g></g></svg></g><defs></defs></svg></g></mask></svg></g></mask><linearGradient x1="0" x2="1" y1="0.548" y2="0.55" id="4874ef34-3ce8-42ad-99c7-fc193313f3a8"><stop stop-color="#ff6cab" offset="0"></stop><stop stop-color="#7366ff" offset="1"></stop></linearGradient><rect width="395.5199890136719" height="247.1999969482422" fill="#000000" mask="url(#1e9e9c8a-da80-42a8-9ab5-9da2bb1b11e6)" data-fill-palette-color="quaternary"></rect></svg><rect width="395.52" height="247.2" fill="none" stroke="none" visibility="hidden"></rect></g></svg></g></svg>