<svg xmlns="http://www.w3.org/2000/svg" version="1.1" xmlns:xlink="http://www.w3.org/1999/xlink" xmlns:svgjs="http://svgjs.dev/svgjs" width="1000" height="623" viewBox="0 0 1000 623"><g transform="matrix(1,0,0,1,-0.6060606060606233,0.2522267206477409)"><svg viewBox="0 0 396 247" data-background-color="#f2f2f2" preserveAspectRatio="xMidYMid meet" height="623" width="1000" xmlns="http://www.w3.org/2000/svg" xmlns:xlink="http://www.w3.org/1999/xlink"><g id="tight-bounds" transform="matrix(1,0,0,1,0.2400000000000091,-0.09999999999999432)"><svg viewBox="0 0 395.52 247.2" height="247.2" width="395.52"><g><svg></svg></g><g><svg viewBox="0 0 395.52 247.2" height="247.2" width="395.52"><mask id="c029fee4-f361-4dc8-807f-40b5e961004f"><rect width="640" height="400" fill="white"></rect><rect width="232.0384" height="117.08698608626273" fill="black" y="65.05650695686863" x="81.7408" id="transform-me"></rect></mask><g transform="matrix(1,0,0,1,92.288,83.8327116743846)"><svg viewBox="0 0 210.944 79.53457665123081" height="79.53457665123081" width="210.944"><g><svg viewBox="0 0 210.944 79.53457665123081" height="79.53457665123081" width="210.944"><g><svg viewBox="0 0 210.944 79.53457665123081" height="79.53457665123081" width="210.944"><g><svg viewBox="0 0 210.944 79.53457665123081" height="79.53457665123081" width="210.944"><g id="textblocktransform"><svg viewBox="0 0 210.944 79.53457665123081" height="79.53457665123081" width="210.944" id="textblock"><g><svg viewBox="0 0 210.944 79.53457665123081" height="79.53457665123081" width="210.944"><g transform="matrix(1,0,0,1,0,0)"><svg width="210.944" viewBox="2.390000104904175 -37.209999084472656 100.16999816894531 37.77000045776367" height="79.53457665123081" data-palette-color="url(#304f5368-d4e0-411b-844c-545451eb2e8f)"></svg></g></svg></g></svg></g></svg></g><g></g></svg></g></svg></g></svg></g><g mask="url(#c029fee4-f361-4dc8-807f-40b5e961004f)"><g transform="matrix(3.0645055061992177, 0, 0, 3.0645055061992177, 100.61518480561341, 1)"><svg xmlns="http://www.w3.org/2000/svg" xmlns:xlink="http://www.w3.org/1999/xlink" version="1.1" x="0" y="0" viewBox="-250.70001220703125 140.98709106445312 63.399993896484375 80.01290893554688" enable-background="new -269 131 100 100" xml:space="preserve" height="80.01290893554688" width="63.399993896484375" class="icon-none" data-fill-palette-color="accent" id="none"></svg></g></g></svg></g><defs></defs><mask id="c538edaf-36dd-44f8-a4df-7d5fdcc3185e"><g id="SvgjsG2532"><svg viewBox="0 0 395.52 247.2" height="247.2" width="395.52"><g><svg></svg></g><g><svg viewBox="0 0 395.52 247.2" height="247.2" width="395.52"><mask id="SvgjsMask2531"></mask><g transform="matrix(1,0,0,1,92.288,83.8327116743846)"><svg viewBox="0 0 210.944 79.53457665123081" height="79.53457665123081" width="210.944"><g><svg viewBox="0 0 210.944 79.53457665123081" height="79.53457665123081" width="210.944"><g><svg viewBox="0 0 210.944 79.53457665123081" height="79.53457665123081" width="210.944"><g><svg viewBox="0 0 210.944 79.53457665123081" height="79.53457665123081" width="210.944"><g id="SvgjsG2529"><svg viewBox="0 0 210.944 79.53457665123081" height="79.53457665123081" width="210.944" id="SvgjsSvg2528"><g><svg viewBox="0 0 210.944 79.53457665123081" height="79.53457665123081" width="210.944"><g transform="matrix(1,0,0,1,0,0)"><svg width="210.944" viewBox="2.390000104904175 -37.209999084472656 100.16999816894531 37.77000045776367" height="79.53457665123081" data-palette-color="url(#304f5368-d4e0-411b-844c-545451eb2e8f)"><path d="M2.39-34.74L2.39-36.82 14.36-36.82 14.36-34.74 10.62-34.18 10.62-20.24 31.01-20.24 31.01-34.18 27.29-34.74 27.29-36.82 39.26-36.82 39.26-34.74 35.57-34.18 35.57-2.64 39.26-2.08 39.26 0 27.29 0 27.29-2.08 31.01-2.64 31.01-17.31 10.62-17.31 10.62-2.64 14.36-2.08 14.36 0 2.39 0 2.39-2.08 6.1-2.64 6.1-34.18 2.39-34.74ZM50.02-24.73L50.02-2.59 53.15-2.03 53.15 0 42.89 0 42.89-2.03 46.07-2.59 46.07-20.36 42.89-20.92 42.89-22.95 50.02-24.73ZM45.93-32.19Q45.53-32.62 45.29-33.15 45.04-33.69 45.04-34.22 45.04-34.74 45.29-35.27 45.53-35.79 45.92-36.23L45.92-36.23Q46.82-37.21 47.57-37.21 48.31-37.21 48.84-36.94 49.36-36.67 49.78-36.23L49.78-36.23Q50.68-35.23 50.68-34.46 50.68-33.69 50.42-33.15 50.17-32.62 49.78-32.18L49.78-32.18Q48.85-31.23 48.08-31.23 47.31-31.23 46.82-31.49 46.34-31.76 45.93-32.19ZM57.1-7.13L58.37-7.13Q58.37-2.03 64.62-2.03L64.62-2.03Q66.99-2.03 68.4-3.08L68.4-3.08Q69.7-4.03 69.7-5.47L69.7-5.47Q69.7-6.98 68.94-7.81L68.94-7.81Q67.45-9.45 64.63-10.42 61.81-11.4 60.41-12.29 59-13.18 58.2-14.16L58.2-14.16Q56.81-15.82 56.81-17.74 56.81-19.65 57.53-20.87 58.25-22.09 59.42-22.95L59.42-22.95Q61.91-24.73 65.18-24.73L65.18-24.73Q69.11-24.73 72.04-23L72.04-23 71.48-18.29 70.16-18.29Q70.16-22.12 65.06-22.12L65.06-22.12Q62.84-22.12 61.69-21.25 60.54-20.39 60.54-19.09L60.54-19.09Q60.54-16.24 66.91-13.92L66.91-13.92Q72.87-11.72 73.63-8.18L73.63-8.18Q73.82-7.18 73.82-5.8 73.82-4.42 72.93-3.13 72.04-1.83 70.7-1.03L70.7-1.03Q68.09 0.56 64.67 0.56L64.67 0.56Q61.32 0.56 58.42-0.73L58.42-0.73Q57.12-1.29 56.17-2.03L56.17-2.03 57.1-7.13ZM102.04-3.32L102.56-1.03Q99.89 0.56 98.31 0.56L98.31 0.56Q96.79 0.56 96.06-0.05L96.06-0.05Q94.74-1.07 94.74-2.47L94.74-2.47 94.74-2.81Q92.64-1.03 90.4-0.23 88.15 0.56 86.47 0.56L86.47 0.56Q83.05 0.56 81.11-1.31 79.17-3.17 79.17-6.96L79.17-6.96 79.17-20.36 76.26-20.85 76.26-23 83.12-24.73 83.12-6.96Q83.12-4.76 84.64-3.56L84.64-3.56Q85.88-2.59 87.57-2.59L87.57-2.59Q90.32-2.59 92.74-4.05L92.74-4.05Q93.84-4.69 94.74-5.54L94.74-5.54 94.74-20.36 91.06-20.85 91.06-22.88 98.7-24.73 98.7-4.13Q98.7-2.81 100.02-2.81L100.02-2.81Q100.94-2.81 102.04-3.32L102.04-3.32Z" opacity="1" transform="matrix(1,0,0,1,0,0)" fill="white" class="wordmark-text-0" id="SvgjsPath2527"></path></svg></g></svg></g></svg></g></svg></g><g></g></svg></g></svg></g></svg></g><g mask="url(#c029fee4-f361-4dc8-807f-40b5e961004f)"><g transform="matrix(3.0645055061992177, 0, 0, 3.0645055061992177, 100.61518480561341, 1)"><svg xmlns="http://www.w3.org/2000/svg" xmlns:xlink="http://www.w3.org/1999/xlink" version="1.1" x="0" y="0" viewBox="-250.70001220703125 140.98709106445312 63.399993896484375 80.01290893554688" enable-background="new -269 131 100 100" xml:space="preserve" height="80.01290893554688" width="63.399993896484375" class="icon-none" data-fill-palette-color="accent" id="SvgjsSvg2526"></svg></g></g></svg></g><defs></defs></svg></g></mask><linearGradient x1="0" x2="1" y1="0.548" y2="0.55" id="304f5368-d4e0-411b-844c-545451eb2e8f"><stop stop-color="#ff6cab" offset="0"></stop><stop stop-color="#7366ff" offset="1"></stop></linearGradient><rect width="395.5199890136719" height="247.1999969482422" fill="url(#304f5368-d4e0-411b-844c-545451eb2e8f)" mask="url(#c538edaf-36dd-44f8-a4df-7d5fdcc3185e)" data-fill-palette-color="primary"></rect><mask id="83b1f328-89e3-4258-a663-74620ac7be84"><g id="SvgjsG2544"><svg viewBox="0 0 395.52 247.2" height="247.2" width="395.52"><g><svg></svg></g><g><svg viewBox="0 0 395.52 247.2" height="247.2" width="395.52"><mask id="SvgjsMask2543"></mask><g transform="matrix(1,0,0,1,92.288,83.8327116743846)"><svg viewBox="0 0 210.944 79.53457665123081" height="79.53457665123081" width="210.944"><g><svg viewBox="0 0 210.944 79.53457665123081" height="79.53457665123081" width="210.944"><g><svg viewBox="0 0 210.944 79.53457665123081" height="79.53457665123081" width="210.944"><g><svg viewBox="0 0 210.944 79.53457665123081" height="79.53457665123081" width="210.944"><g id="SvgjsG2541"><svg viewBox="0 0 210.944 79.53457665123081" height="79.53457665123081" width="210.944" id="SvgjsSvg2540"><g><svg viewBox="0 0 210.944 79.53457665123081" height="79.53457665123081" width="210.944"><g transform="matrix(1,0,0,1,0,0)"><svg width="210.944" viewBox="2.390000104904175 -37.209999084472656 100.16999816894531 37.77000045776367" height="79.53457665123081" data-palette-color="url(#304f5368-d4e0-411b-844c-545451eb2e8f)"></svg></g></svg></g></svg></g></svg></g><g></g></svg></g></svg></g></svg></g><g mask="url(#c029fee4-f361-4dc8-807f-40b5e961004f)"><g transform="matrix(3.0645055061992177, 0, 0, 3.0645055061992177, 100.61518480561341, 1)"><svg xmlns="http://www.w3.org/2000/svg" xmlns:xlink="http://www.w3.org/1999/xlink" version="1.1" x="0" y="0" viewBox="-250.70001220703125 140.98709106445312 63.399993896484375 80.01290893554688" enable-background="new -269 131 100 100" xml:space="preserve" height="80.01290893554688" width="63.399993896484375" class="icon-none" data-fill-palette-color="accent" id="SvgjsSvg2539"><path d="M-200.1 163.7l-1-0.8c-1.2-1-3.1-0.6-3.8 0.8-0.3 0.7-0.6 7.7-0.6 8.9 0 0.2 0 0.6 0 0.7 0 1-0.9 1.8-1.9 1.6-0.8-0.1-1.4-0.9-1.4-1.7-0.1-12-3.7-20.4-10.5-26.7-4.1-3.8-9-7.2-10.5-4.6-0.4 0.7 0.2 2.2 0.9 4.1 1.4 4.3-2.9 11.2-9 18.1-5.7 6.5-12.8 14.5-12.8 26.4 0 16 15.1 30.5 31.7 30.5 16.6 0 31.7-14.5 31.7-30.5C-187.3 180.4-192.1 170.4-200.1 163.7zM-219 215.2c-7.2 0-13.1-5.9-13.1-13.1 0-3.6 1.4-6.8 3.8-9.2l7.2-8.6c1.1-1.3 3.2-1.3 4.3 0l7.2 8.6c2.3 2.4 3.8 5.6 3.8 9.2C-205.9 209.3-211.8 215.2-219 215.2z" fill="white"></path></svg></g></g></svg></g><defs></defs><mask><g id="SvgjsG2538"><svg viewBox="0 0 395.52 247.2" height="247.2" width="395.52"><g><svg></svg></g><g><svg viewBox="0 0 395.52 247.2" height="247.2" width="395.52"><mask id="SvgjsMask2537"></mask><g transform="matrix(1,0,0,1,92.288,83.8327116743846)"><svg viewBox="0 0 210.944 79.53457665123081" height="79.53457665123081" width="210.944"><g><svg viewBox="0 0 210.944 79.53457665123081" height="79.53457665123081" width="210.944"><g><svg viewBox="0 0 210.944 79.53457665123081" height="79.53457665123081" width="210.944"><g><svg viewBox="0 0 210.944 79.53457665123081" height="79.53457665123081" width="210.944"><g id="SvgjsG2536"><svg viewBox="0 0 210.944 79.53457665123081" height="79.53457665123081" width="210.944" id="SvgjsSvg2535"><g><svg viewBox="0 0 210.944 79.53457665123081" height="79.53457665123081" width="210.944"><g transform="matrix(1,0,0,1,0,0)"><svg width="210.944" viewBox="2.390000104904175 -37.209999084472656 100.16999816894531 37.77000045776367" height="79.53457665123081" data-palette-color="url(#304f5368-d4e0-411b-844c-545451eb2e8f)"></svg></g></svg></g></svg></g></svg></g><g></g></svg></g></svg></g></svg></g><g mask="url(#c029fee4-f361-4dc8-807f-40b5e961004f)"><g transform="matrix(3.0645055061992177, 0, 0, 3.0645055061992177, 100.61518480561341, 1)"><svg xmlns="http://www.w3.org/2000/svg" xmlns:xlink="http://www.w3.org/1999/xlink" version="1.1" x="0" y="0" viewBox="-250.70001220703125 140.98709106445312 63.399993896484375 80.01290893554688" enable-background="new -269 131 100 100" xml:space="preserve" height="80.01290893554688" width="63.399993896484375" class="icon-none" data-fill-palette-color="accent" id="SvgjsSvg2533"></svg></g></g></svg></g><defs></defs></svg></g></mask></svg></g></mask><linearGradient x1="0" x2="1" y1="0.548" y2="0.55" id="f8f095fe-dbb3-4741-842a-2c3bf611ea14"><stop stop-color="#ff6cab" offset="0"></stop><stop stop-color="#7366ff" offset="1"></stop></linearGradient><rect width="395.5199890136719" height="247.1999969482422" fill="url(#f8f095fe-dbb3-4741-842a-2c3bf611ea14)" mask="url(#83b1f328-89e3-4258-a663-74620ac7be84)" data-fill-palette-color="accent"></rect></svg><rect width="395.52" height="247.2" fill="none" stroke="none" visibility="hidden"></rect></g></svg></g></svg>