<svg xmlns="http://www.w3.org/2000/svg" shape-rendering="geometricPrecision" text-rendering="geometricPrecision" image-rendering="optimizeQuality" fill-rule="evenodd" clip-rule="evenodd" viewBox="0 0 435 511.53"><path fill-rule="nonzero" d="M251.961 315.103c-14.247 1.119-27.918 1.783-41.62 1.709-12.609-.07-25.192-.769-38.185-2.324 3.775 10.573 7.65 22.763 8.996 27.372 3.517 12.028 6.143 23.96 7.868 35.761 1.757 12.02 2.639 23.991 2.639 35.879 0 24.733-7.842 45.928-20.495 62.199a91.672 91.672 0 01-31.868 25.987c-12.295 6.056-25.852 9.306-39.685 9.306-19.46 0-39.492-6.352-57.379-20.264-8.131-6.318-14.934-14.854-20.391-25.585-5.151-10.136-9.136-22.318-11.927-36.517l-.04-.223c-3.084-17.546-5.501-39.374-7.248-65.458-.843-12.557-1.494-25.852-1.936-39.868-.458-14.418-.69-28.39-.69-41.926 0-17.109.398-34.415 1.175-51.9a1060.179 1060.179 0 013.434-50.17c1.56-16.896 3.413-32.275 5.532-46.094 2.189-14.309 4.731-27.565 7.606-39.729l.118-.463C20.867 80.011 24.9 68.516 29.95 58.362l.328-.616c5.195-10.302 11.456-19.294 18.765-26.957C66.354 12.644 88.217 4.168 109.538 4.168a80.069 80.069 0 0129.426 5.597 78.912 78.912 0 0125.463 16.305c15.624 14.908 25.934 36.88 25.934 64.637 0 9.136-.72 19.071-2.153 29.797-1.425 10.704-3.509 21.784-6.226 33.227a329.809 329.809 0 01-7.428 26.293l-2.132 6.279c13.422-1.473 27.18-1.748 40.956-1.246 14.728.538 29.347 1.958 43.534 3.74l-2.574-11.975c-1.97-9.643-3.665-19.251-5.029-29.011-1.559-11.176-2.721-21.522-3.477-31.016-.778-9.831-1.176-18.966-1.176-27.377 0-26.503 9.381-47.89 23.882-63.142 8.118-8.538 17.839-15.113 28.399-19.543C307.466 2.294 318.861 0 330.352 0c21.142 0 42.69 7.746 60.044 24.244 7.59 7.218 13.981 16.126 19.141 26.7l.394.904c4.797 10.036 8.554 21.588 11.246 34.616l.026.132c2.215 10.026 4.168 21.019 5.841 32.951 1.726 12.343 3.185 25.559 4.365 39.61 1.154 13.759 2.045 28.059 2.661 42.866.62 14.841.93 29.168.93 42.978 0 13.597-.257 28.024-.768 43.268a1332.356 1332.356 0 01-2.172 43.686c-.978 14.716-2.263 28.976-3.845 42.752a748.327 748.327 0 01-5.658 40.043l-.07.371c-2.521 15.227-6.204 28.447-11.023 39.645-5.103 11.849-11.547 21.601-19.32 29.251-19.18 18.866-41.502 27.513-63.133 27.513-11.181 0-22.156-2.32-32.393-6.738-10.128-4.369-19.547-10.83-27.73-19.158-18.098-18.398-30.042-45.863-30.042-79.88 0-10.076.576-20.548 1.703-31.383 1.106-10.556 2.784-21.413 5.016-32.533 1.525-7.598 3.233-14.737 5.06-21.723l1.336-5.012zM88.741 59.345c3.01-3.7 8.458-4.264 12.159-1.253 3.7 3.01 4.264 8.458 1.254 12.158-8.105 9.962-14.838 22.746-19.814 38.571-4.841 15.388-8.013 33.594-9.184 54.797-.262 4.767-4.347 8.424-9.114 8.162-4.766-.263-8.423-4.347-8.161-9.114 1.254-22.702 4.688-42.302 9.935-58.992 5.654-17.983 13.448-32.685 22.925-44.329zM54.146 189.658c-.091-4.766 3.701-8.716 8.468-8.808 4.766-.092 8.716 3.701 8.808 8.467l.104 4.736c.092 4.767-3.7 8.717-8.467 8.808-4.767.092-8.716-3.7-8.808-8.467l-.105-4.736zm156.283 104.12c18.022.101 36.255-1.179 56.082-3.08a11.493 11.493 0 014.294.406c6.109 1.77 9.626 8.162 7.856 14.27-1.992 6.881-3.919 13.605-5.728 20.526-1.787 6.824-3.412 13.596-4.788 20.456a326.648 326.648 0 00-4.658 30.365 279.67 279.67 0 00-1.52 29.033c0 27.555 9.289 49.41 23.357 63.714 6.016 6.121 12.954 10.879 20.417 14.099 7.353 3.172 15.239 4.841 23.27 4.841 15.864 0 32.449-6.545 46.967-20.827 5.562-5.475 10.324-12.788 14.261-21.937 4.133-9.595 7.301-21.033 9.499-34.298l.056-.389c2.11-12.447 3.941-25.41 5.484-38.872a874.862 874.862 0 003.748-41.668c.983-14.772 1.713-29.076 2.172-42.873.454-13.514.681-27.705.681-42.543 0-14.592-.279-28.63-.843-42.078-.559-13.488-1.451-27.451-2.661-41.869-1.184-14.126-2.582-26.918-4.181-38.344-1.621-11.564-3.447-21.946-5.474-31.112l-.123-.529c-2.311-11.171-5.448-20.914-9.398-29.198l-.432-.808c-3.976-8.145-8.738-14.855-14.265-20.112-12.762-12.133-28.605-17.83-44.15-17.83a63.39 63.39 0 00-24.484 4.907c-7.712 3.211-14.759 7.973-20.623 14.143-10.608 11.154-17.467 27.118-17.467 47.247 0 7.934.367 16.467 1.088 25.568.751 9.433 1.852 19.329 3.294 29.662 1.324 9.498 2.932 18.617 4.758 27.569 1.791 8.769 3.936 17.922 6.322 27.481.349 1.407.441 2.901.227 4.426-.895 6.309-6.741 10.696-13.051 9.8-18.822-2.722-38.535-5.129-57.851-5.833-19.031-.699-37.958.223-55.723 4.081a11.63 11.63 0 01-6.956-.677c-5.859-2.495-8.589-9.271-6.095-15.13a295.895 295.895 0 008.813-23.48 305.26 305.26 0 006.886-24.484c2.652-11.155 4.614-21.461 5.867-30.877 1.254-9.376 1.883-18.319 1.883-26.817 0-20.933-7.44-37.177-18.708-47.929-5.256-5.016-11.412-8.891-18.062-11.517a57.023 57.023 0 00-20.932-3.972c-15.358 0-31.178 6.178-43.787 19.395-5.75 6.02-10.7 13.155-14.851 21.391l-.267.581C46.339 77.298 42.9 87.111 40.331 98.06l-.091.432c-2.723 11.504-5.143 24.157-7.249 37.929-2.184 14.239-4.006 29.168-5.444 44.739a1040.57 1040.57 0 00-3.338 49.087c-.721 16.183-1.087 33.153-1.087 50.904 0 14.864.2 28.614.602 41.201a1108.428 1108.428 0 001.936 39.055c1.682 25.123 4.011 46.138 6.969 63.02 2.359 11.95 5.636 22.034 9.808 30.239 3.897 7.663 8.564 13.609 13.977 17.817 13.583 10.564 28.653 15.388 43.197 15.388a66.68 66.68 0 0029.478-6.868c9.114-4.488 17.306-11.098 23.83-19.486 9.642-12.396 15.619-28.745 15.619-48.017a224.68 224.68 0 00-2.368-32.541 240.704 240.704 0 00-7.143-32.685c-1.329-4.544-5.632-17.949-9.766-29.194-2.276-6.209-4.255-11.229-4.989-12.221a11.524 11.524 0 01-2.075-8.939c1.144-6.256 7.152-10.403 13.409-9.258 19.215 3.552 37.01 5.016 54.823 5.116z"/></svg>